# xmcd
#
# Track frame offsets: 
#        150
#        16997
#        34742
#        52037
#        67633
#        85778
#        105350
#        121526
#        139849
#        154105
#
# Disc length: 2292 seconds
#
# Revision: 0
# Processed by: cddbd v1.5.2PL0 Copyright (c) Steve Scherf et al.
# Submitted via: ExactAudioCopy v0.99pb4
#
DISCID=6e08f20a
DTITLE=Mijares - Uno Entre Mil
DYEAR=1988
DGENRE=Pop
TTITLE0=Soldado Del Amor
TTITLE1=Un Centavo De Amor
TTITLE2=Como Un Ladrón
TTITLE3=Con Un Nudo En La Garganta
TTITLE4=Tan Solo
TTITLE5=La Guerra Del Amor
TTITLE6=Uno Entre Mil
TTITLE7=El Breve Espacio
TTITLE8=No Quiero Perderte
TTITLE9=Nube Azul
EXTD=
EXTT0=
EXTT1=
EXTT2=
EXTT3=
EXTT4=
EXTT5=
EXTT6=
EXTT7=
EXTT8=
EXTT9=
PLAYORDER=
